<svg width="12" height="12" viewBox="0 0 12 12" fill="none" xmlns="http://www.w3.org/2000/svg">
<path d="M6.0002 1.20001C8.65118 1.20001 10.8002 3.34904 10.8002 6.00001C10.8002 6.50665 10.7207 6.99463 10.5752 7.45315C10.2554 7.13701 9.99638 6.76027 9.81698 6.34045C9.7742 6.23971 9.7025 6.15373 9.61075 6.09319C9.51877 6.03259 9.4106 6.00001 9.3002 6.00001C9.1898 6.00001 9.08162 6.03259 8.98964 6.09319C8.8979 6.15373 8.8262 6.23971 8.78342 6.34045C8.43032 7.16695 7.77026 7.82719 6.94004 8.18437C6.83906 8.22823 6.75314 8.30035 6.69278 8.39179C6.63242 8.48335 6.6002 8.59063 6.6002 8.70001C6.6002 8.80939 6.63242 8.91667 6.69278 9.00823C6.75314 9.09967 6.83906 9.17179 6.94004 9.21565C7.46624 9.44197 7.92374 9.79021 8.27834 10.2252C7.60046 10.5915 6.82478 10.8 6.0002 10.8C3.34923 10.8 1.2002 8.65099 1.2002 6.00001C1.2002 3.34904 3.34923 1.20001 6.0002 1.20001Z" fill="#60E0C4"/>
<path d="M9.05888 6.67222C8.98736 6.71938 8.93144 6.78634 8.89814 6.86488C8.62352 7.50772 8.11022 8.0212 7.46456 8.299C7.38596 8.33314 7.31912 8.38924 7.27214 8.46046C7.22522 8.53168 7.2002 8.6149 7.2002 8.69998C7.2002 8.78506 7.22522 8.86828 7.27214 8.9395C7.31912 9.01072 7.38596 9.06682 7.46456 9.10096C8.11028 9.3787 8.62358 9.89224 8.89814 10.5351C8.93144 10.6136 8.98736 10.6806 9.05888 10.7277C9.1304 10.7748 9.21434 10.8 9.3002 10.8C9.38606 10.8 9.47 10.7748 9.54152 10.7277C9.61304 10.6806 9.66895 10.6136 9.70226 10.5351C9.97681 9.89224 10.4901 9.3787 11.1358 9.10096C11.2144 9.06682 11.2813 9.01072 11.3283 8.9395C11.3752 8.86828 11.4002 8.78506 11.4002 8.69998C11.4002 8.6149 11.3752 8.53168 11.3283 8.46046C11.2813 8.38924 11.2144 8.33314 11.1358 8.299C10.4902 8.0212 9.97688 7.50772 9.70226 6.86488C9.66895 6.78634 9.61304 6.71938 9.54152 6.67222C9.47 6.62512 9.38606 6.59998 9.3002 6.59998C9.21434 6.59998 9.1304 6.62512 9.05888 6.67222Z" fill="#60E0C4"/>
</svg>
