<svg width="20" height="20" viewBox="0 0 20 20" fill="none" xmlns="http://www.w3.org/2000/svg">
<path d="M17.1503 14.2827C17.065 14.4248 16.9267 14.5273 16.7659 14.5674C16.6051 14.6076 16.4349 14.5823 16.2927 14.497C16.1506 14.4117 16.0482 14.2734 16.008 14.1125C15.9678 13.9517 15.9931 13.7815 16.0785 13.6394C16.7383 12.5403 17.0859 11.282 17.0837 9.99999C17.0837 6.08791 13.9124 2.91666 10.0003 2.91666C6.08824 2.91666 2.91699 6.08791 2.91699 9.99999C2.91699 13.9121 6.08824 17.0833 10.0003 17.0833C11.2821 17.0856 12.5403 16.7382 13.6393 16.0785C13.7097 16.0363 13.7877 16.0084 13.8689 15.9963C13.95 15.9842 14.0328 15.9882 14.1124 16.0081C14.1921 16.028 14.267 16.0634 14.3329 16.1123C14.3989 16.1612 14.4546 16.2225 14.4968 16.2929C14.539 16.3633 14.567 16.4413 14.579 16.5225C14.5911 16.6037 14.5871 16.6864 14.5672 16.7661C14.5473 16.8457 14.5119 16.9206 14.463 16.9866C14.4142 17.0525 14.3528 17.1082 14.2824 17.1504C12.9891 17.9266 11.5087 18.3356 10.0003 18.3333C5.39803 18.3333 1.66699 14.6023 1.66699 9.99999C1.66699 5.3977 5.39803 1.66666 10.0003 1.66666C14.6026 1.66666 18.3337 5.3977 18.3337 9.99999C18.3337 11.5292 17.9205 12.9994 17.1503 14.2827ZM12.7087 8.54166C12.7087 9.82874 11.7962 10.9021 10.5759 11.18V11.875C10.5759 12.0408 10.5101 12.1997 10.3929 12.3169C10.2757 12.4341 10.1167 12.5 9.95095 12.5C9.78519 12.5 9.62622 12.4341 9.50901 12.3169C9.3918 12.1997 9.32595 12.0408 9.32595 11.875V10.625C9.32595 10.4592 9.3918 10.3003 9.50901 10.183C9.62622 10.0658 9.78519 9.99999 9.95095 9.99999C10.7868 9.99999 11.4587 9.34374 11.4587 8.54166C11.4587 7.73957 10.7868 7.08332 9.95095 7.08332C9.42803 7.08332 8.95324 7.34207 8.67803 7.75957C8.60722 7.8669 8.55122 7.9833 8.51157 8.10561C8.45843 8.26062 8.34653 8.38856 8.19998 8.46188C8.05343 8.53519 7.88395 8.54802 7.72804 8.49759C7.57212 8.44717 7.44224 8.33753 7.36638 8.19228C7.29051 8.04704 7.27472 7.8778 7.32241 7.72103C7.39657 7.49145 7.50157 7.27311 7.63449 7.07186C8.13949 6.3052 9.00532 5.83332 9.95116 5.83332C11.4705 5.83332 12.7087 7.04249 12.7087 8.54166ZM10.0003 14.375C9.83456 14.375 9.67559 14.3091 9.55838 14.1919C9.44117 14.0747 9.37532 13.9158 9.37532 13.75C9.37532 13.5842 9.44117 13.4253 9.55838 13.308C9.67559 13.1908 9.83456 13.125 10.0003 13.125C10.1661 13.125 10.3251 13.1908 10.4423 13.308C10.5595 13.4253 10.6253 13.5842 10.6253 13.75C10.6253 13.9158 10.5595 14.0747 10.4423 14.1919C10.3251 14.3091 10.1661 14.375 10.0003 14.375Z" fill="black"/>
</svg>
