<svg width="40" height="40" viewBox="0 0 40 40" fill="none" xmlns="http://www.w3.org/2000/svg">
<path d="M34.283 27.8408C34.307 27.8514 34.3275 27.8654 34.3447 27.876C34.3275 27.8865 34.307 27.8971 34.283 27.9111L20.4008 34.7484C20.1644 34.8644 19.8356 34.8644 19.5992 34.7484L5.71359 27.9076C5.6896 27.8971 5.66905 27.883 5.65192 27.8725C5.66905 27.8619 5.6896 27.8514 5.71359 27.8373L10.0749 25.6895L6.51184 23.9354L4.37745 24.9864C3.21946 25.5594 2.5 26.6667 2.5 27.876C2.5 29.0852 3.21946 30.189 4.38087 30.762L18.263 37.5993C18.8078 37.8664 19.4004 38 19.9966 38C20.5927 38 21.1888 37.8664 21.7301 37.5993L35.6123 30.762C36.7737 30.189 37.4931 29.0852 37.4931 27.876C37.4931 26.6667 36.7737 25.5629 35.6123 24.9899L33.4847 23.9389L29.9217 25.693L34.283 27.8408Z" fill="#555555"/>
<path d="M19.5992 26.8741L13.6379 23.9389L10.0749 25.693L18.263 29.725C18.8078 29.9922 19.4004 30.1258 19.9966 30.1258C20.5927 30.1258 21.1888 29.9922 21.7301 29.725L29.9183 25.693L26.3552 23.9389L20.3974 26.8741C20.1644 26.9901 19.8356 26.9901 19.5992 26.8741ZM35.6157 22.8878C36.7771 22.3148 37.4966 21.211 37.4966 20.0018C37.4966 18.7925 36.7771 17.6887 35.6157 17.1157L33.4847 16.0646L29.9217 17.8188L34.283 19.9666C34.307 19.9772 34.3275 19.9912 34.3447 20.0018C34.3275 20.0123 34.307 20.0229 34.283 20.0369L29.9217 22.1847L33.4847 23.9389L35.6157 22.8878ZM5.71359 20.0334C5.6896 20.0229 5.66905 20.0088 5.65192 19.9982C5.66905 19.9877 5.6896 19.9772 5.71359 19.9631L10.0749 17.8153L6.51184 16.0611L4.37745 17.1122C3.21946 17.6852 2.5 18.7925 2.5 20.0018C2.5 21.211 3.21946 22.3148 4.38087 22.8878L6.51527 23.9389L10.0783 22.1847L5.71359 20.0334Z" fill="#555555"/>
<path d="M26.3587 23.9389L29.9217 25.693L33.4847 23.9389L29.9217 22.1847L26.3587 23.9389ZM13.6379 23.9389L10.0749 22.1847L6.51527 23.9389L10.0749 25.693L13.6379 23.9389ZM19.5992 21.0036L18.0712 21.7559L18.2664 21.8508C18.8112 22.118 19.4039 22.2515 20 22.2515C20.5961 22.2515 21.1922 22.118 21.7336 21.8508L21.9288 21.7559L20.4008 21.0036C20.1644 20.8876 19.8356 20.8876 19.5992 21.0036ZM5.71359 12.1592C5.6896 12.1486 5.66905 12.1346 5.65192 12.124C5.66905 12.1135 5.6896 12.1029 5.71359 12.0889L19.5992 5.25515C19.8356 5.13915 20.1644 5.13915 20.4008 5.25515L34.283 12.0924C34.307 12.1029 34.3275 12.117 34.3447 12.1275C34.3275 12.1381 34.307 12.1486 34.283 12.1627L29.9217 14.3105L33.4847 16.0646L35.6191 15.0136C36.7805 14.4406 37.5 13.3368 37.5 12.1275C37.5 10.9183 36.7805 9.81447 35.6191 9.24148L21.7336 2.40074C20.6475 1.86642 19.3491 1.86642 18.263 2.40074L4.38087 9.24148C3.21946 9.81096 2.5 10.9183 2.5 12.1275C2.5 13.3368 3.21946 14.4406 4.38087 15.0136L6.51527 16.0646L10.0783 14.3105L5.71359 12.1592ZM21.9288 18.2476L25.4884 20.0018L29.9217 17.8188L26.3587 16.0646L21.9288 18.2476ZM18.0712 18.2476L13.6379 16.0646L10.0749 17.8188L14.5081 20.0018L18.0712 18.2476Z" fill="#555555"/>
<path d="M19.5992 18.9999L18.0712 18.2476L14.5081 20.0018L18.0712 21.7559L19.5992 21.0036C19.8356 20.8876 20.1644 20.8876 20.4008 21.0036L21.9288 21.7559L25.4919 20.0018L21.9288 18.2476L20.4008 18.9999C20.1644 19.1159 19.8356 19.1159 19.5992 18.9999ZM13.6379 16.0646L10.0749 14.3105L6.51527 16.0646L10.0749 17.8188L13.6379 16.0646ZM26.3587 16.0646L29.9217 17.8188L33.4847 16.0646L29.9217 14.3105L26.3587 16.0646Z" fill="#555555"/>
</svg>
