<svg width="40" height="40" viewBox="0 0 40 40" fill="none" xmlns="http://www.w3.org/2000/svg">
<path d="M33.6496 9.64401C34.0406 9.488 34.4629 9.42677 34.882 9.4653C35.3012 9.50383 35.7053 9.64105 36.0612 9.86571C36.4172 10.0904 36.7149 10.3961 36.93 10.7579C37.1452 11.1197 37.2716 11.5273 37.2989 11.9473L37.3043 12.1153L37.3229 21.1993C37.3239 21.6207 37.2249 22.0362 37.0343 22.4119C36.8436 22.7876 36.5667 23.1128 36.2261 23.3608C35.8855 23.6088 35.491 23.7726 35.0749 23.8388C34.6588 23.9049 34.233 23.8715 33.8323 23.7413L33.6736 23.684L27.5083 21.2393C27.1884 21.112 26.9302 20.8658 26.7877 20.5524C26.6452 20.239 26.6295 19.8826 26.7438 19.5579C26.8581 19.2331 27.0936 18.9652 27.401 18.8101C27.7084 18.6551 28.0638 18.6249 28.3929 18.726L28.4909 18.7607L34.6563 21.2047L34.6376 12.1213L28.4936 14.572C28.1734 14.7004 27.8159 14.6997 27.4962 14.57C27.1765 14.4403 26.9195 14.1917 26.7792 13.8765C26.639 13.5613 26.6263 13.204 26.744 12.8797C26.8617 12.5553 27.1005 12.2893 27.4103 12.1373L27.5056 12.0947L33.6496 9.64401Z" fill="#555555"/>
<path d="M26.667 4.66666H5.33366C4.62642 4.66666 3.94814 4.94761 3.44804 5.44771C2.94794 5.9478 2.66699 6.62608 2.66699 7.33332V26C2.66699 26.7072 2.94794 27.3855 3.44804 27.8856C3.94814 28.3857 4.62642 28.6667 5.33366 28.6667H26.667C27.3742 28.6667 28.0525 28.3857 28.5526 27.8856C29.0527 27.3855 29.3337 26.7072 29.3337 26V7.33332C29.3337 6.62608 29.0527 5.9478 28.5526 5.44771C28.0525 4.94761 27.3742 4.66666 26.667 4.66666ZM5.33366 7.33332H26.667V26H5.33366V7.33332Z" fill="#555555"/>
<path d="M9.47395 27.404C9.62837 27.0964 9.89579 26.8604 10.2202 26.7454C10.5447 26.6304 10.901 26.6454 11.2147 26.7871C11.5284 26.9289 11.7751 27.1865 11.9032 27.506C12.0313 27.8255 12.0308 28.1822 11.902 28.5013L11.8593 28.596L8.52595 35.2627C8.37154 35.5703 8.10412 35.8063 7.77967 35.9213C7.45521 36.0363 7.09886 36.0213 6.78519 35.8796C6.47151 35.7378 6.22482 35.4802 6.09673 35.1607C5.96864 34.8412 5.96908 34.4845 6.09795 34.1653L6.14062 34.0707L9.47395 27.404ZM20.7373 26.8073C21.0374 26.6572 21.3831 26.6258 21.7054 26.7194C22.0277 26.8129 22.3028 27.0245 22.476 27.312L22.526 27.404L25.8593 34.0707C26.0151 34.3791 26.0451 34.736 25.9429 35.0661C25.8407 35.3962 25.6144 35.6738 25.3116 35.8403C25.0088 36.0067 24.6532 36.0492 24.3197 35.9586C23.9862 35.868 23.7009 35.6515 23.524 35.3547L23.474 35.2627L20.1406 28.596C19.9826 28.2797 19.9566 27.9136 20.0685 27.5781C20.1804 27.2427 20.421 26.9654 20.7373 26.8073Z" fill="#555555"/>
<path d="M20 20.6667V22C20 22.3536 19.8595 22.6928 19.6095 22.9428C19.3594 23.1929 19.0203 23.3334 18.6667 23.3334H9.33333C8.97971 23.3334 8.64057 23.1929 8.39052 22.9428C8.14048 22.6928 8 22.3536 8 22V20.6667H20Z" fill="#00B386"/>
</svg>
