<svg width="33" height="33" viewBox="0 0 33 33" fill="none" xmlns="http://www.w3.org/2000/svg">
<rect width="33" height="33" rx="8" fill="#5B6BE8" fill-opacity="0.1"/>
<path d="M23.8163 19.4187C24.1788 19.4187 24.4976 19.74 24.4976 20.1012V23.5112C24.4976 23.6008 24.4799 23.6895 24.4456 23.7722C24.4113 23.855 24.361 23.9301 24.2976 23.9934C24.2342 24.0567 24.1589 24.1068 24.0761 24.141C23.9933 24.1752 23.9046 24.1927 23.8151 24.1925H10.1801C9.99926 24.1925 9.82586 24.1208 9.6979 23.993C9.56994 23.8653 9.49789 23.692 9.49756 23.5112V20.1C9.49756 19.725 9.80381 19.4175 10.1801 19.4175H23.8176L23.8163 19.4187ZM11.3163 22.5562H12.9076V21.0562H11.3163V22.5562ZM23.8163 13.7375C24.1788 13.7375 24.4976 14.0587 24.4976 14.42V17.83C24.4963 18.205 24.1913 18.5112 23.8151 18.5112H10.1801C9.99926 18.5112 9.82586 18.4395 9.6979 18.3118C9.56994 18.1841 9.49789 18.0108 9.49756 17.83V14.42C9.49756 14.045 9.80381 13.7387 10.1801 13.7375H23.8176H23.8163ZM11.3163 16.875H12.9076V15.375H11.3163V16.875ZM23.8163 8.05624C24.1788 8.05624 24.4976 8.37624 24.4976 8.73749V12.1475C24.4976 12.2371 24.4799 12.3258 24.4456 12.4085C24.4113 12.4912 24.361 12.5664 24.2976 12.6297C24.2342 12.6929 24.1589 12.7431 24.0761 12.7772C23.9933 12.8114 23.9046 12.8289 23.8151 12.8287H10.1801C9.99926 12.8287 9.82586 12.757 9.6979 12.6293C9.56994 12.5016 9.49789 12.3283 9.49756 12.1475V8.73749C9.49756 8.36249 9.80381 8.05624 10.1801 8.05624H23.8176H23.8163ZM11.3163 11.1912H12.9076V9.69249H11.3163V11.1925V11.1912Z" fill="#5B6BE8"/>
</svg>
