<svg width="20" height="20" viewBox="0 0 20 20" fill="none" xmlns="http://www.w3.org/2000/svg">
<circle cx="10" cy="10" r="10" fill="#D5DAFF"/>
<path d="M6.1801 8.302C6.38447 8.17938 6.5536 8.00592 6.67101 7.79851C6.78843 7.59111 6.85012 7.35683 6.8501 7.1185V6.7805C6.8501 6.377 7.0101 5.9895 7.2961 5.704L7.3071 5.693C7.4671 5.533 7.6621 5.413 7.8761 5.3415L7.8936 5.3355C8.11151 5.26281 8.3438 5.24403 8.57056 5.28078C8.79732 5.31753 9.01179 5.40871 9.1956 5.5465C9.6776 5.9085 10.3356 5.9265 10.8366 5.5925L11.0501 5.45L11.1241 5.413C11.3375 5.30631 11.5747 5.25593 11.813 5.26666C12.0514 5.27739 12.2831 5.34886 12.4861 5.4743C12.689 5.59973 12.8566 5.77496 12.9728 5.98336C13.089 6.19175 13.1501 6.42639 13.1501 6.665V6.9515C13.1501 7.5475 13.4351 8.1075 13.9171 8.458L14.6646 9.0015C14.9261 9.1915 15.0936 9.4835 15.1256 9.805L15.1996 10.5435C15.206 10.6075 15.1988 10.6722 15.1787 10.7333C15.1585 10.7944 15.1258 10.8507 15.0826 10.8984C15.0394 10.9461 14.9867 10.9842 14.9279 11.0103C14.8691 11.0365 14.8055 11.05 14.7411 11.05C14.6806 11.05 14.6206 11.0619 14.5647 11.0851C14.5087 11.1082 14.4579 11.1422 14.4151 11.185L13.6201 11.98C13.4767 12.1232 13.3728 12.3012 13.3187 12.4965C13.2645 12.6918 13.2619 12.8979 13.3111 13.0945C13.3671 13.3184 13.3558 13.5539 13.2786 13.7715C13.2014 13.989 13.0618 14.179 12.8771 14.3175L12.7176 14.437C12.5271 14.5799 12.3047 14.6745 12.0696 14.7127C11.8344 14.7508 11.5936 14.7314 11.3676 14.656L10.7501 14.45C10.2618 14.2871 9.73559 14.2756 9.2406 14.417L8.4371 14.647C8.17619 14.7214 7.89883 14.7149 7.64171 14.6283C7.38458 14.5417 7.1598 14.3791 6.9971 14.162L6.7356 13.813C6.66501 13.719 6.622 13.6071 6.6114 13.49C6.60081 13.3729 6.62303 13.2552 6.6756 13.15C6.72816 13.0448 6.75039 12.9271 6.73979 12.81C6.72919 12.6929 6.68619 12.581 6.6156 12.487L5.9306 11.573C5.8452 11.4591 5.73444 11.3667 5.6071 11.303C5.45491 11.227 5.32687 11.1101 5.23733 10.9655C5.14779 10.8208 5.10027 10.6541 5.1001 10.484V9.337C5.1001 8.909 5.4026 8.54 5.8226 8.456C5.9236 8.436 6.0201 8.3985 6.1086 8.3455L6.1801 8.3025V8.302Z" fill="#5B6BE8"/>
<path d="M11.6239 15.176C11.4244 15.176 11.2329 15.094 11.1074 14.9545C10.9374 14.769 10.3989 14.282 9.95894 14.282C9.52144 14.282 8.97744 14.7715 8.81894 14.941C8.75284 15.0099 8.6734 15.0646 8.58545 15.1017C8.4975 15.1389 8.4029 15.1577 8.30744 15.157C8.21444 15.157 8.12694 15.138 8.04494 15.102L8.03144 15.097L6.69394 14.3475L6.68044 14.3395C6.56144 14.2533 6.47525 14.1292 6.43601 13.9876C6.39677 13.8459 6.40679 13.6952 6.46444 13.56C6.46444 13.5575 6.58744 13.276 6.58744 13.016C6.58744 12.6394 6.43803 12.2782 6.172 12.0116C5.90597 11.745 5.54505 11.5948 5.16844 11.594H5.11344C4.88944 11.594 4.70594 11.3945 4.64844 11.0855C4.64344 11.0605 4.53394 10.4755 4.53394 10.0135C4.53394 9.55151 4.64344 8.96651 4.64894 8.94201C4.70894 8.63001 4.89494 8.42751 5.12194 8.43301H5.16844C5.5447 8.43208 5.90521 8.28186 6.1708 8.01534C6.43638 7.74881 6.58533 7.38777 6.58494 7.01151C6.58494 6.75451 6.46144 6.47001 6.46144 6.46701C6.40363 6.33233 6.39353 6.18195 6.43281 6.04076C6.47209 5.89956 6.55839 5.776 6.67744 5.69051L6.69144 5.68251L8.10244 4.90601L8.11594 4.90051C8.19544 4.86751 8.28294 4.84851 8.37594 4.84851C8.57244 4.84851 8.76394 4.92751 8.88994 5.05901C9.05644 5.23401 9.58444 5.69051 10.0134 5.69051C10.4374 5.69051 10.9624 5.24201 11.1294 5.07001C11.1961 5.0033 11.2754 4.95055 11.3628 4.91483C11.4501 4.87912 11.5436 4.86116 11.6379 4.86201C11.7309 4.86201 11.8209 4.87851 11.9004 4.91401L11.9139 4.91951L13.2839 5.67951L13.2974 5.68801C13.5409 5.85751 13.6339 6.19351 13.5134 6.46451C13.5134 6.46701 13.3904 6.74901 13.3904 7.00851C13.3903 7.38474 13.5393 7.74567 13.8048 8.01222C14.0704 8.27877 14.4307 8.42919 14.8069 8.43051H14.8534C15.0804 8.42501 15.2664 8.62751 15.3264 8.93901C15.3319 8.96401 15.4414 9.54901 15.4414 10.011C15.4414 10.473 15.3319 11.058 15.3264 11.083C15.2664 11.3945 15.0804 11.597 14.8534 11.5915H14.8069C14.4306 11.5924 14.07 11.7427 13.8044 12.0094C13.5388 12.276 13.3899 12.6372 13.3904 13.0135C13.3904 13.2705 13.5134 13.5545 13.5134 13.5575C13.6339 13.831 13.5409 14.1645 13.2974 14.334L13.2814 14.3475L11.8949 15.116L11.8814 15.1215C11.8014 15.157 11.7144 15.1765 11.6239 15.1765V15.176ZM11.5804 14.52C11.5854 14.5225 11.6054 14.531 11.6214 14.531H11.6239L12.9204 13.8115C12.8904 13.738 12.7454 13.385 12.7454 13.016C12.7457 12.4877 12.9481 11.9796 13.311 11.5957C13.674 11.2119 14.17 10.9814 14.6974 10.9515C14.7139 10.864 14.7989 10.3775 14.7989 10.0135C14.7989 9.64751 14.7139 9.16051 14.6974 9.07601C14.1698 9.04661 13.6734 8.81619 13.3103 8.43213C12.9473 8.04806 12.7451 7.53951 12.7454 7.01101C12.7454 6.64201 12.8874 6.28651 12.9204 6.21601L11.6459 5.50451H11.6409C11.6233 5.50452 11.606 5.50936 11.5909 5.51851C11.5694 5.54001 11.3859 5.72851 11.1209 5.91501C10.7274 6.19101 10.3579 6.33301 10.0159 6.33301C9.67444 6.33301 9.29994 6.19101 8.90344 5.90651C8.73379 5.78616 8.57547 5.6506 8.43044 5.50151C8.41559 5.49237 8.39836 5.48784 8.38094 5.48851H8.37594L7.05494 6.21501C7.08794 6.28901 7.22994 6.64151 7.22994 7.01101C7.22962 7.53937 7.02719 8.04758 6.66415 8.43145C6.3011 8.81532 5.80495 9.04576 5.27744 9.07551C5.26144 9.16301 5.17644 9.64951 5.17644 10.013C5.17644 10.3795 5.26144 10.8665 5.27744 10.951C5.80512 10.9803 6.30155 11.2106 6.66469 11.5946C7.02784 11.9785 7.23011 12.487 7.22994 13.0155C7.22994 13.3845 7.08494 13.7405 7.05494 13.811L8.30494 14.511H8.30744C8.32644 14.511 8.34244 14.506 8.34844 14.5005C8.37344 14.4755 8.55894 14.276 8.82694 14.079C9.22594 13.784 9.60894 13.636 9.95894 13.636C10.3114 13.636 10.6974 13.7895 11.0989 14.0875C11.3699 14.2925 11.5589 14.495 11.5804 14.5195V14.52Z" fill="#5B6BE8"/>
<path d="M9.96439 11.9C8.92239 11.9 8.07739 11.05 8.07739 10.005C8.07739 8.961 8.92539 8.1105 9.96439 8.1105C10.466 8.11196 10.9466 8.31225 11.3008 8.66748C11.655 9.0227 11.8539 9.50387 11.8539 10.0055C11.8544 10.5074 11.6556 10.9889 11.3012 11.3443C10.9468 11.6996 10.4658 11.8997 9.96389 11.9005L9.96439 11.9ZM9.96439 8.7585C9.63339 8.7593 9.31622 8.89135 9.08245 9.12568C8.84868 9.36001 8.71739 9.6775 8.71739 10.0085C8.71739 10.6975 9.27539 11.258 9.96439 11.258C10.2954 11.2572 10.6126 11.1252 10.8463 10.8908C11.0801 10.6565 11.2114 10.339 11.2114 10.008C11.2114 9.319 10.6534 8.7585 9.96439 8.7585Z" fill="#D5DAFF"/>
<path d="M8.6001 10C8.6001 10.3713 8.7476 10.7274 9.01015 10.99C9.2727 11.2525 9.62879 11.4 10.0001 11.4C10.3714 11.4 10.7275 11.2525 10.99 10.99C11.2526 10.7274 11.4001 10.3713 11.4001 10C11.4001 9.6287 11.2526 9.27261 10.99 9.01006C10.7275 8.74751 10.3714 8.60001 10.0001 8.60001C9.62879 8.60001 9.2727 8.74751 9.01015 9.01006C8.7476 9.27261 8.6001 9.6287 8.6001 10Z" fill="#D5DAFF"/>
</svg>
