<svg width="33" height="33" viewBox="0 0 33 33" fill="none" xmlns="http://www.w3.org/2000/svg">
<rect width="33" height="33" rx="8" fill="#5B6BE8" fill-opacity="0.1"/>
<g clip-path="url(#clip0_22_1652)">
<path d="M9.98124 7.42876C11.0687 7.05001 12.52 6.83376 14.0837 6.83376C15.6462 6.83376 17.0962 7.05126 18.1862 7.42876C18.7262 7.61626 19.2237 7.85751 19.6025 8.16626C19.9737 8.47126 20.3337 8.93126 20.3337 9.54126V11.0038C20.3337 11.1538 20.3337 11.2288 20.3037 11.285C20.2806 11.3286 20.2449 11.3643 20.2012 11.3875C20.1462 11.4163 20.07 11.4163 19.9162 11.4163C18.2537 11.4163 16.6575 11.6475 15.405 12.08C14.7887 12.2938 14.1412 12.595 13.6062 13.0325C13.1992 13.3592 12.8735 13.776 12.655 14.25C12.6012 14.3713 12.5737 14.4313 12.5287 14.4588C12.4825 14.485 12.4225 14.48 12.3037 14.4713C10.8412 14.3463 9.60499 14.0613 8.67749 13.6138C8.50087 13.5292 8.32933 13.4345 8.16374 13.33C8.01249 13.2338 7.93624 13.1875 7.88499 13.0925C7.83374 13 7.83374 12.8975 7.83374 12.6925V9.54251C7.83374 8.93126 8.19249 8.47126 8.56499 8.16751C8.94249 7.85751 9.43999 7.61501 9.98124 7.42876ZM9.61999 9.45626C9.78999 9.31876 10.0862 9.15626 10.5262 9.00376C11.3975 8.70001 12.655 8.50001 14.0837 8.50001C15.5112 8.50001 16.77 8.70126 17.6412 9.00376C18.0812 9.15501 18.3762 9.31751 18.5462 9.45626C18.6012 9.50126 18.6012 9.58126 18.5462 9.62626C18.3762 9.76626 18.0812 9.92751 17.6412 10.08C16.77 10.3813 15.5112 10.5838 14.0837 10.5838C12.655 10.5838 11.3962 10.3813 10.5262 10.08C10.0862 9.92751 9.78999 9.76626 9.61999 9.62626C9.60723 9.61607 9.59692 9.60314 9.58984 9.58842C9.58275 9.57371 9.57908 9.55759 9.57908 9.54126C9.57908 9.52492 9.58275 9.5088 9.58984 9.49409C9.59692 9.47937 9.60723 9.46644 9.61999 9.45626ZM12.4162 16.0425C12.4162 15.8963 12.4162 15.8238 12.3725 15.775C12.33 15.7275 12.2562 15.7213 12.1087 15.7075C10.5787 15.57 9.21624 15.2613 8.13499 14.74C8.1045 14.7234 8.07273 14.7091 8.03999 14.6975C8.01829 14.6916 7.99559 14.6903 7.97334 14.6936C7.9511 14.6969 7.92978 14.7048 7.91074 14.7168C7.89171 14.7288 7.87537 14.7446 7.86276 14.7632C7.85015 14.7818 7.84155 14.8029 7.83749 14.825C7.83374 14.8425 7.83374 14.87 7.83374 14.925V17.525C7.83374 17.7463 7.83374 17.8563 7.89374 17.9563C7.95374 18.0563 8.03874 18.1 8.20999 18.19C8.34374 18.26 8.48749 18.3275 8.64249 18.39C9.52624 18.75 10.6875 18.9625 12.065 19.06C12.2287 19.0713 12.3112 19.0775 12.3637 19.0275C12.4162 18.9775 12.4162 18.895 12.4162 18.7288V16.0438V16.0425ZM12.3712 20.3775C12.4162 20.4263 12.4162 20.5013 12.4162 20.65V22.5C12.4162 22.9463 12.5212 23.3363 12.6787 23.67C12.8237 23.98 12.8962 24.135 12.8412 24.215C12.785 24.2938 12.6325 24.2788 12.3287 24.2488C11.5429 24.178 10.7659 24.0306 10.0087 23.8088C9.47374 23.6438 8.97999 23.4313 8.60249 23.1563C8.24249 22.8938 7.83374 22.4575 7.83374 21.8338V19.7675C7.83374 19.6725 7.83374 19.625 7.84624 19.595C7.85822 19.5641 7.87938 19.5376 7.90686 19.519C7.93434 19.5005 7.96684 19.4908 7.99999 19.4913C8.03249 19.4913 8.07874 19.51 8.16999 19.5475C9.24249 19.985 10.5912 20.2163 12.1012 20.315C12.2512 20.325 12.3262 20.33 12.3712 20.3775ZM19.9162 12.6663C18.3537 12.6663 16.9037 12.885 15.8137 13.2613C15.2737 13.4488 14.7762 13.69 14.3975 14C14.025 14.305 13.6662 14.765 13.6662 15.375V17.5675C13.6662 17.945 13.6662 18.1338 13.77 18.3213C13.8737 18.5088 14.0025 18.59 14.26 18.7525C15.5212 19.5463 17.465 19.9575 19.9162 19.9575C22.3675 19.9575 24.3125 19.545 25.5737 18.7525C25.83 18.59 25.9587 18.5088 26.0625 18.3213C26.1662 18.1338 26.1662 17.945 26.1662 17.5675V15.375C26.1662 14.765 25.8075 14.305 25.435 14C25.0575 13.69 24.56 13.4488 24.02 13.2625C22.93 12.885 21.48 12.6663 19.9162 12.6663ZM16.3587 14.8375C17.23 14.5363 18.4887 14.335 19.9162 14.335C21.345 14.335 22.6037 14.535 23.4737 14.8375C23.9137 14.99 24.21 15.1525 24.38 15.2913C24.435 15.3363 24.435 15.4163 24.38 15.4613C24.21 15.6 23.9137 15.7613 23.4737 15.915C22.6025 16.215 21.345 16.4175 19.9162 16.4175C18.4887 16.4175 17.23 16.2163 16.3587 15.915C15.9187 15.7625 15.6237 15.6 15.4537 15.4613C15.441 15.4511 15.4307 15.4381 15.4236 15.4234C15.4165 15.4087 15.4128 15.3926 15.4128 15.3763C15.4128 15.3599 15.4165 15.3438 15.4236 15.3291C15.4307 15.3144 15.441 15.3014 15.4537 15.2913C15.6237 15.1525 15.9187 14.99 16.3587 14.8375Z" fill="#5B6BE8"/>
<path d="M25.91 20.0038C24.38 20.8425 22.29 21.2075 19.9163 21.2075C17.5438 21.2075 15.4538 20.8425 13.9238 20.0038C13.8063 19.94 13.7488 19.9075 13.7075 19.9313C13.6663 19.9563 13.6663 20.0213 13.6663 20.1525V22.5C13.6663 23.1125 14.035 23.5675 14.4038 23.865C14.7838 24.1675 15.2788 24.4025 15.8188 24.5863C16.9063 24.9538 18.355 25.1663 19.9163 25.1663C21.4788 25.1663 22.9263 24.9538 24.0138 24.5863C24.5538 24.4038 25.05 24.1675 25.4288 23.865C25.7988 23.5675 26.1663 23.1125 26.1663 22.5V20.1525C26.1663 20.0213 26.1663 19.9563 26.125 19.9313C26.085 19.9075 26.0263 19.94 25.91 20.0038Z" fill="#5B6BE8"/>
</g>
<defs>
<clipPath id="clip0_22_1652">
<rect width="20" height="20" fill="white" transform="translate(7 6)"/>
</clipPath>
</defs>
</svg>
