<svg width="14" height="14" viewBox="0 0 14 14" fill="none" xmlns="http://www.w3.org/2000/svg">
<path d="M11.2954 6.7701L9.83695 4.94804C9.76604 4.85997 9.6608 4.81078 9.55214 4.81078C9.5121 4.81078 9.47092 4.81765 9.43203 4.83137C9.28562 4.88284 9.18839 5.02124 9.18839 5.17565V6.26912H6.27158C5.86895 6.26912 5.54295 6.5951 5.54295 6.99771C5.54295 7.40033 5.86895 7.72631 6.27158 7.72631H9.18725V8.81977C9.18725 8.97418 9.28562 9.11258 9.43089 9.16405C9.47092 9.17778 9.51096 9.18464 9.55099 9.18464C9.65966 9.18464 9.76489 9.13546 9.83581 9.04739L11.2942 7.22418C11.4017 7.09265 11.4017 6.90392 11.2954 6.7701ZM7.72884 9.91438H4.80746C4.40826 9.91438 4.0834 9.5884 4.0834 9.18578V4.81078V4.80507C4.0834 4.40588 4.4094 4.08219 4.81318 4.08219H7.72884C8.13148 4.08219 8.45862 3.75621 8.45862 3.35359C8.45862 2.95098 8.13262 2.625 7.72884 2.625H4.0834C3.27814 2.625 2.625 3.2781 2.625 4.08333V9.91667C2.625 10.7219 3.27814 11.375 4.0834 11.375H7.72884C8.13148 11.375 8.45862 11.049 8.45862 10.6464C8.45862 10.2415 8.13148 9.91438 7.72884 9.91438Z" fill="#FF4D4F"/>
</svg>
