<svg width="20" height="20" viewBox="0 0 20 20" fill="none" xmlns="http://www.w3.org/2000/svg">
<circle cx="10" cy="10" r="10" fill="#FFE8D9"/>
<path d="M10.0001 4.16666C13.2217 4.16666 15.8334 6.77839 15.8334 9.99999C15.8334 13.2216 13.2217 15.8333 10.0001 15.8333C6.77848 15.8333 4.16675 13.2216 4.16675 9.99999C4.16675 6.77839 6.77848 4.16666 10.0001 4.16666ZM10.0001 12.1875C9.88405 12.1875 9.77277 12.2336 9.69072 12.3156C9.60868 12.3977 9.56258 12.509 9.56258 12.625C9.56258 12.741 9.60868 12.8523 9.69072 12.9344C9.77277 13.0164 9.88405 13.0625 10.0001 13.0625C10.1161 13.0625 10.2274 13.0164 10.3094 12.9344C10.3915 12.8523 10.4376 12.741 10.4376 12.625C10.4376 12.509 10.3915 12.3977 10.3094 12.3156C10.2274 12.2336 10.1161 12.1875 10.0001 12.1875ZM9.96566 7.08332C9.30373 7.08332 8.69764 7.41364 8.344 7.9503C8.25104 8.09124 8.17756 8.2441 8.12554 8.40472C8.08984 8.51514 8.09947 8.63523 8.15231 8.73855C8.20515 8.84188 8.29687 8.91998 8.40729 8.95568C8.51771 8.99138 8.6378 8.98175 8.74112 8.92891C8.84445 8.87607 8.92255 8.78435 8.95825 8.67393C8.98581 8.58861 9.02504 8.50709 9.07477 8.4317C9.26727 8.13945 9.59962 7.95832 9.96566 7.95832C10.5507 7.95832 11.0209 8.4177 11.0209 8.97916C11.0209 9.54061 10.5506 9.99999 9.96552 9.99999C9.84949 9.99999 9.73821 10.0461 9.65616 10.1281C9.57411 10.2102 9.52802 10.3215 9.52802 10.4375V11.3125C9.52802 11.4285 9.57411 11.5398 9.65616 11.6218C9.73821 11.7039 9.84949 11.75 9.96552 11.75C10.0816 11.75 10.1928 11.7039 10.2749 11.6218C10.3569 11.5398 10.403 11.4285 10.403 11.3125V10.826C11.2572 10.6316 11.8959 9.88012 11.8959 8.97916C11.8959 7.92974 11.0294 7.08332 9.96552 7.08332H9.96566Z" fill="#FF9047"/>
</svg>
