<svg width="20" height="20" viewBox="0 0 20 20" fill="none" xmlns="http://www.w3.org/2000/svg">
<path d="M9.35127 3.20312C13.0427 3.20312 16.0443 6.15619 16.1228 9.82877L16.3975 9.55414L16.409 9.54289C16.6539 9.31014 17.0411 9.31387 17.2813 9.55414C17.5216 9.79439 17.5254 10.1816 17.2926 10.4265L17.2813 10.438L16.5057 11.2137C15.9565 11.7628 15.0661 11.7628 14.517 11.2137L13.7413 10.438C13.4972 10.1939 13.4972 9.79822 13.7413 9.55414C13.9854 9.31006 14.3811 9.31006 14.6252 9.55414L14.8717 9.80061C14.7789 6.83154 12.3429 4.45312 9.35127 4.45312C6.30092 4.45312 3.82813 6.92592 3.82813 9.97627C3.82813 13.0266 6.30092 15.4994 9.35127 15.4994C10.8697 15.4994 12.2441 14.8875 13.2431 13.8953C13.488 13.652 13.8838 13.6534 14.127 13.8983C14.3702 14.1432 14.3689 14.539 14.1239 14.7822C12.9003 15.9975 11.213 16.7494 9.35127 16.7494C5.61057 16.7494 2.57812 13.717 2.57812 9.97627C2.57812 6.23557 5.61057 3.20312 9.35127 3.20312Z" fill="#333333"/>
</svg>
