<svg width="20" height="20" viewBox="0 0 20 20" fill="none" xmlns="http://www.w3.org/2000/svg">
<path d="M2.51709 8.761H17.0301V16.168C17.0301 16.4765 16.9693 16.7819 16.8513 17.0669C16.7332 17.3519 16.5602 17.6109 16.3421 17.829C16.124 18.0471 15.865 18.2201 15.58 18.3382C15.295 18.4562 14.9896 18.517 14.6811 18.517H4.86609C4.55761 18.517 4.25216 18.4562 3.96717 18.3382C3.68217 18.2201 3.42322 18.0471 3.2051 17.829C2.98697 17.6109 2.81394 17.3519 2.6959 17.0669C2.57785 16.7819 2.51709 16.4765 2.51709 16.168V8.761Z" fill="#EC6B44"/>
<path d="M6 11H14V14.7961C14 14.9542 13.9665 15.1108 13.9014 15.2568C13.8364 15.4029 13.741 15.5356 13.6208 15.6474C13.5005 15.7592 13.3578 15.8479 13.2007 15.9084C13.0436 15.9689 12.8752 16 12.7052 16H7.29484C7.1248 16 6.95642 15.9689 6.79933 15.9084C6.64223 15.8479 6.49949 15.7592 6.37925 15.6474C6.25901 15.5356 6.16364 15.4029 6.09856 15.2568C6.03349 15.1108 6 14.9542 6 14.7961V11Z" fill="#EE7C55"/>
<path d="M2.34702 4.811H17.615C18.347 4.811 18.713 5.177 18.713 5.909V6.917C18.713 7.649 18.347 8.015 17.615 8.015H2.34702C1.61502 8.015 1.24902 7.649 1.24902 6.917V5.909C1.24902 5.177 1.61502 4.811 2.34702 4.811Z" fill="#F5C295"/>
<path d="M6.1889 4.077H9.8329L7.2649 1.491C7.16447 1.3911 7.02857 1.33502 6.8869 1.33502C6.74524 1.33502 6.60934 1.3911 6.5089 1.491L5.4559 2.53C5.35681 2.62773 5.29979 2.7603 5.29698 2.89945C5.29418 3.03861 5.34582 3.17336 5.4409 3.275L6.1889 4.077Z" fill="#EC6B44"/>
<path d="M13.4169 4.077H9.77393L12.3419 1.491C12.4424 1.3911 12.5783 1.33502 12.7199 1.33502C12.8616 1.33502 12.9975 1.3911 13.0979 1.491L14.1509 2.53C14.2498 2.62786 14.3067 2.76038 14.3095 2.89946C14.3123 3.03854 14.2608 3.17324 14.1659 3.275L13.4169 4.077Z" fill="#EC6B44"/>
</svg>
