<svg width="20" height="20" viewBox="0 0 20 20" fill="none" xmlns="http://www.w3.org/2000/svg">
<path d="M16.6321 5.131L15.8921 5.413C15.6595 5.50184 15.4075 5.52772 15.1617 5.48804C14.9159 5.44836 14.6849 5.34452 14.4921 5.187L11.0361 2.363C10.7708 2.14684 10.4362 2.03411 10.0943 2.04569C9.75229 2.05727 9.42609 2.19238 9.17608 2.426L6.20608 5.205C6.01742 5.38149 5.78393 5.5028 5.53107 5.5557C5.2782 5.6086 5.01566 5.59106 4.77208 5.505L3.53508 5.071C3.30628 4.99065 3.06066 4.9705 2.82182 5.01248C2.58298 5.05446 2.35895 5.15716 2.17125 5.31071C1.98356 5.46426 1.83851 5.6635 1.75004 5.88928C1.66157 6.11507 1.63266 6.35981 1.66608 6.6L2.86608 15.166C2.97438 15.9392 3.3585 16.6472 3.94766 17.1596C4.53682 17.6719 5.29131 17.9541 6.07208 17.954H14.3121C15.1047 17.9545 15.8699 17.6642 16.4628 17.1382C17.0557 16.6122 17.4351 15.887 17.5291 15.1L18.5381 6.619C18.5669 6.37757 18.533 6.13278 18.4395 5.90832C18.346 5.68385 18.1962 5.4873 18.0046 5.33767C17.8129 5.18805 17.5859 5.09041 17.3454 5.0542C17.105 5.018 16.8593 5.04445 16.6321 5.131ZM13.2321 9.619L10.6841 12.926C10.6171 13.0138 10.5303 13.0845 10.4308 13.1323C10.3313 13.1802 10.2219 13.2038 10.1115 13.2013C10.0011 13.1987 9.89284 13.1701 9.79562 13.1177C9.69841 13.0654 9.61495 12.9908 9.55208 12.9L7.28708 9.7C6.83408 9.059 7.61408 8.272 8.25908 8.719L9.71708 9.734C9.83052 9.81277 9.96473 9.85623 10.1028 9.8589C10.2409 9.86157 10.3767 9.82333 10.4931 9.749L12.3001 8.6C12.9581 8.179 13.7071 9 13.2271 9.619H13.2321Z" fill="#EC6B44"/>
<path d="M16.6321 5.131L15.8921 5.413C15.6595 5.50184 15.4075 5.52772 15.1617 5.48804C14.9159 5.44836 14.6849 5.34452 14.4921 5.187L11.0361 2.363C10.7708 2.14684 10.4362 2.03411 10.0943 2.04569C9.75229 2.05727 9.42609 2.19238 9.17608 2.426L6.20608 5.205C6.01742 5.38149 5.78393 5.5028 5.53107 5.5557C5.2782 5.6086 5.01566 5.59106 4.77208 5.505L3.53508 5.071C3.30628 4.99065 3.06066 4.9705 2.82182 5.01248C2.58298 5.05446 2.35895 5.15716 2.17125 5.31071C1.98356 5.46425 1.83851 5.6635 1.75004 5.88928C1.66157 6.11507 1.63266 6.35981 1.66608 6.6L2.86608 15.166C2.88506 15.301 2.91278 15.4346 2.94908 15.566C4.60097 16.3277 6.4262 16.6347 8.23638 16.4554C10.0466 16.2761 11.7761 15.617 13.2465 14.546C14.7168 13.4751 15.8747 12.0311 16.6007 10.3632C17.3266 8.69532 17.5943 6.8639 17.3761 5.058C17.1261 5.01414 16.8688 5.03938 16.6321 5.131ZM13.2321 9.619L10.6841 12.926C10.6171 13.0138 10.5303 13.0845 10.4308 13.1323C10.3313 13.1802 10.2219 13.2038 10.1115 13.2013C10.0011 13.1987 9.89284 13.1701 9.79562 13.1177C9.69841 13.0654 9.61495 12.9908 9.55208 12.9L7.28708 9.7C6.83408 9.059 7.61408 8.272 8.25908 8.719L9.71708 9.734C9.83052 9.81277 9.96473 9.85623 10.1028 9.8589C10.2409 9.86157 10.3767 9.82333 10.4931 9.749L12.3001 8.6C12.9581 8.179 13.7071 9 13.2271 9.619H13.2321Z" fill="#EE7C55"/>
<path d="M11.0361 2.363C10.7708 2.14684 10.4362 2.03411 10.0943 2.04569C9.75229 2.05727 9.42609 2.19238 9.17608 2.426L6.20608 5.205C6.01742 5.38149 5.78393 5.5028 5.53107 5.5557C5.2782 5.6086 5.01566 5.59106 4.77208 5.505L3.53508 5.071C3.30628 4.99065 3.06066 4.9705 2.82182 5.01248C2.58298 5.05446 2.35895 5.15716 2.17125 5.31071C1.98356 5.46426 1.83851 5.6635 1.75004 5.88928C1.66157 6.11507 1.63266 6.35981 1.66608 6.6L2.40908 11.9C3.21697 12.2914 4.08339 12.5481 4.97408 12.66C6.34385 12.8336 7.73527 12.6582 9.01908 12.15L7.28708 9.7C6.83408 9.059 7.61408 8.272 8.25908 8.719L9.71708 9.734C9.83052 9.81277 9.96473 9.85623 10.1028 9.8589C10.2409 9.86157 10.3767 9.82333 10.4931 9.749L12.3001 8.6C12.4216 8.51783 12.5665 8.47739 12.7129 8.48478C12.8594 8.49218 12.9995 8.54701 13.1121 8.641C13.6731 7.68117 14.033 6.61728 14.1701 5.514C14.1925 5.32894 14.2085 5.14316 14.2181 4.957L11.0361 2.363Z" fill="#F19970"/>
<path d="M10.9851 2.8C11.0031 2.653 11.0161 2.506 11.0261 2.36C10.7609 2.14716 10.428 2.03698 10.0882 2.04965C9.74845 2.06233 9.42463 2.197 9.17608 2.429L6.20608 5.205C6.01742 5.38149 5.78393 5.5028 5.53107 5.5557C5.2782 5.6086 5.01566 5.59106 4.77208 5.505L3.53508 5.071C3.30628 4.99065 3.06066 4.9705 2.82182 5.01248C2.58298 5.05446 2.35895 5.15716 2.17125 5.3107C1.98356 5.46425 1.83851 5.66349 1.75004 5.88928C1.66157 6.11507 1.63266 6.35981 1.66608 6.6L2.05108 9.347C2.19108 9.372 2.33108 9.394 2.47308 9.412C4.47857 9.66353 6.50186 9.10829 8.09807 7.86838C9.69428 6.62847 10.7327 4.80539 10.9851 2.8Z" fill="#F5C295"/>
</svg>
