<svg preserveAspectRatio="xMidYMid meet" viewBox="0 0 16 16" fill="none" xmlns="http://www.w3.org/2000/svg">
<g id="&#233;&#166;&#150;&#233;&#161;&#181;-icon-&#233;&#128;&#137;&#228;&#184;&#173;">
<g id="Rectangle 307">
</g>
<path id="Vector" d="M11.76 15.552H10.504C9.76796 15.552 9.16796 14.952 9.16796 14.216V11.288C9.16796 11.256 9.14396 11.232 9.11196 11.232H6.97596C6.94396 11.232 6.91996 11.256 6.91996 11.288V14.216C6.91996 14.952 6.31996 15.552 5.58396 15.552H4.39996C3.16796 15.552 2.15996 14.552 2.15996 13.312V8.88801C2.15996 8.85601 2.13596 8.83201 2.10396 8.83201C1.55996 8.83201 1.07196 8.50401 0.863959 8.00001C0.655959 7.49601 0.775959 6.92001 1.15996 6.53601L7.10396 0.696012C7.62396 0.184012 8.46396 0.184012 8.98396 0.696012L14.92 6.54401C15.312 6.92801 15.424 7.49601 15.216 8.00801C15.008 8.51201 14.52 8.84001 13.976 8.84001C13.624 8.84001 13.336 8.55201 13.336 8.20001C13.336 7.84801 13.624 7.56001 13.976 7.56001C13.992 7.56001 14.016 7.56001 14.032 7.52801C14.048 7.49601 14.032 7.48001 14.016 7.46401L8.07996 1.60801C8.05596 1.58401 8.02396 1.58401 7.99996 1.60801L2.06396 7.45601C2.05596 7.46401 2.03996 7.48001 2.04796 7.52001C2.06396 7.55201 2.08796 7.55201 2.10396 7.55201C2.83996 7.55201 3.43996 8.15201 3.43996 8.88801V13.312C3.43996 13.84 3.87196 14.272 4.39996 14.272H5.58396C5.61596 14.272 5.63996 14.248 5.63996 14.216V11.288C5.63996 10.552 6.23996 9.95201 6.97596 9.95201H9.10396C9.83996 9.95201 10.44 10.552 10.44 11.288V14.216C10.44 14.248 10.464 14.272 10.496 14.272H11.76C12.248 14.272 12.64 13.872 12.64 13.392V10.496C12.64 10.144 12.928 9.85601 13.28 9.85601C13.632 9.85601 13.92 10.144 13.92 10.496V13.392C13.92 14.584 12.952 15.552 11.76 15.552Z" fill="#555555"/>
</g>
</svg>
