<svg preserveAspectRatio="none" width="100%" height="100%" overflow="visible" style="display: block;" viewBox="0 0 16 16" fill="none" xmlns="http://www.w3.org/2000/svg">
<g id="&#231;&#136;&#134;&#230;&#172;&#190;&#229;&#164;&#141;&#229;&#136;&#182;-icon">
<g id="Rectangle 309">
</g>
<path id="Vector" d="M11.4096 1.5141C11.3538 1.45519 11.2827 1.41343 11.2046 1.39359C11.1265 1.37375 11.0444 1.37664 10.9678 1.40192C10.8019 1.45833 10.6914 1.57051 10.6914 1.7391C10.6914 1.7391 10.6365 2.01923 10.4705 2.58013C10.4156 2.8609 10.3052 3.14103 10.1398 3.53333C10.0843 3.8141 9.97382 3.92628 9.97382 3.92628C9.91891 3.86987 9.47712 3.58974 8.92488 1.79487C8.81444 1.40256 8.70399 0.953205 8.538 0.336538C8.538 0.224359 8.42755 0.11218 8.31711 0.0557693C8.26157 5.01482e-08 8.15112 0 8.04067 0C5.72191 0.897436 4.39654 3.36538 3.78939 4.82372L3.3476 3.53333C3.27776 3.39905 3.1584 3.29833 3.01563 3.2532C2.90518 3.2532 2.7392 3.30897 2.68429 3.36538C0.585786 5.38462 0.806681 8.52564 0.806681 8.69423V8.75C1.08248 12.3397 4.00966 15.2 7.59888 15.2C11.0228 15.2 13.9499 12.6205 14.3362 9.14231V9.03013C14.3362 8.91795 14.3362 8.80577 14.3917 8.63782C14.5022 6.28205 13.5081 3.86987 11.4096 1.5141ZM12.979 8.48755V8.84181C12.6308 11.5724 10.3406 13.646 7.65218 13.646C4.81408 13.646 2.42434 11.3702 2.27527 8.48813V8.43728C2.27527 8.08302 2.2252 6.16147 3.3205 4.7456L3.86843 6.31346C3.91793 6.46488 4.06757 6.56659 4.21665 6.56659C4.36629 6.56659 4.51536 6.46488 4.56544 6.26261C4.56544 6.21233 5.51109 2.77378 7.85132 1.61045C7.9509 1.96471 8.00097 2.26811 8.10054 2.52065C8.59783 4.18965 9.09626 4.99872 9.7432 4.99872C9.99242 4.99872 10.3907 4.89759 10.5898 4.18965C10.7389 3.83597 10.8385 3.53199 10.888 3.27945C10.9381 3.27945 10.9381 3.22859 10.9381 3.17831C12.3822 4.94787 13.0786 6.7677 12.979 8.48755Z" fill="#555555"/>
<path id="Vector_2" d="M9.99989 9.09998C9.79989 8.99998 9.59989 9.09998 9.49989 9.29998C9.09989 10.1503 8.29989 10.7 7.35018 10.7C6.64961 10.7 6.05018 10.4 5.5999 9.89998L6.39989 9.95026C6.59989 9.95026 6.79989 9.79998 6.79989 9.59998C6.79989 9.39998 6.64961 9.19998 6.44961 9.19998L4.89989 9.04969C4.8341 9.04784 4.76869 9.06032 4.7082 9.08627C4.64772 9.11222 4.5936 9.15102 4.54961 9.19998C4.44961 9.29998 4.44961 9.49998 4.54961 9.59998C5.05018 10.7 6.14961 11.4 7.39989 11.4C8.65018 11.4 9.69989 10.7 10.2496 9.59998C10.2496 9.39998 10.1999 9.19998 9.99989 9.09998Z" fill="#555555"/>
</g>
</svg>
