<svg preserveAspectRatio="xMidYMid meet" viewBox="0 0 12 12" fill="none" xmlns="http://www.w3.org/2000/svg">
<g id="Frame" clip-path="url(#clip0_0_19)">
<path id="Vector" d="M6 0.75C6.2635 0.75 6.4775 1.0165 6.4775 1.345L6.477 5.5225H10.655C10.9835 5.5225 11.25 5.7365 11.25 6C11.25 6.2635 10.9835 6.4775 10.655 6.4775L6.477 6.477V10.655C6.477 10.9835 6.2635 11.25 6 11.25C5.7365 11.25 5.5225 10.9835 5.5225 10.655V6.477H1.345C1.0165 6.477 0.75 6.2635 0.75 6C0.75 5.7365 1.0165 5.5225 1.345 5.5225H5.5225V1.345C5.5225 1.0165 5.7365 0.75 6 0.75Z" fill="#909090"/>
</g>
<defs>
<clipPath id="clip0_0_19">
<rect width="12" height="12" fill="white"/>
</clipPath>
</defs>
</svg>
