<svg preserveAspectRatio="xMidYMid meet" viewBox="0 0 14 14" fill="none" xmlns="http://www.w3.org/2000/svg">
<g id="Frame">
<path id="Vector" d="M6.14133 1.12583C6.40345 0.978233 6.69918 0.900691 7 0.900691C7.30082 0.900691 7.59655 0.978233 7.85867 1.12583L11.7437 3.31333C12.0141 3.46562 12.2392 3.6871 12.3958 3.95505C12.5524 4.223 12.635 4.52779 12.635 4.83817V9.16183C12.635 9.47221 12.5524 9.777 12.3958 10.0449C12.2392 10.3129 12.0141 10.5344 11.7437 10.6867L7.85867 12.8742C7.59655 13.0218 7.30082 13.0993 7 13.0993C6.69918 13.0993 6.40345 13.0218 6.14133 12.8742L2.25633 10.6867C1.98589 10.5344 1.76081 10.3129 1.60418 10.0449C1.44755 9.777 1.365 9.47221 1.365 9.16183V4.83817C1.365 4.52779 1.44755 4.223 1.60418 3.95505C1.76081 3.6871 1.98589 3.46562 2.25633 3.31333L6.14133 1.12583ZM7.28642 2.14317C7.199 2.0939 7.10035 2.06801 7 2.06801C6.89965 2.06801 6.801 2.0939 6.71358 2.14317L2.82917 4.33008C2.73898 4.38078 2.66389 4.45455 2.61161 4.54384C2.55933 4.63312 2.53174 4.7347 2.53167 4.83817V9.16183C2.53174 9.2653 2.55933 9.36688 2.61161 9.45616C2.66389 9.54545 2.73898 9.61922 2.82917 9.66992L6.71417 11.8574C6.80158 11.9067 6.90024 11.9326 7.00058 11.9326C7.10093 11.9326 7.19958 11.9067 7.287 11.8574L11.172 9.66992C11.2622 9.61922 11.3373 9.54545 11.3896 9.45616C11.4418 9.36688 11.4694 9.2653 11.4695 9.16183V4.83817C11.4694 4.7347 11.4418 4.63312 11.3896 4.54384C11.3373 4.45455 11.2622 4.38078 11.172 4.33008L7.28642 2.14317ZM7 4.66667C7.61884 4.66667 8.21233 4.9125 8.64992 5.35008C9.0875 5.78767 9.33333 6.38116 9.33333 7C9.33333 7.61884 9.0875 8.21233 8.64992 8.64992C8.21233 9.0875 7.61884 9.33333 7 9.33333C6.38116 9.33333 5.78767 9.0875 5.35008 8.64992C4.9125 8.21233 4.66667 7.61884 4.66667 7C4.66667 6.38116 4.9125 5.78767 5.35008 5.35008C5.78767 4.9125 6.38116 4.66667 7 4.66667ZM7 5.83333C6.84679 5.83333 6.69508 5.86351 6.55354 5.92214C6.41199 5.98077 6.28338 6.06671 6.17504 6.17504C6.06671 6.28338 5.98077 6.41199 5.92214 6.55354C5.86351 6.69508 5.83333 6.84679 5.83333 7C5.83333 7.15321 5.86351 7.30492 5.92214 7.44646C5.98077 7.58801 6.06671 7.71662 6.17504 7.82496C6.28338 7.93329 6.41199 8.01923 6.55354 8.07786C6.69508 8.13649 6.84679 8.16667 7 8.16667C7.30942 8.16667 7.60617 8.04375 7.82496 7.82496C8.04375 7.60617 8.16667 7.30942 8.16667 7C8.16667 6.69058 8.04375 6.39383 7.82496 6.17504C7.60617 5.95625 7.30942 5.83333 7 5.83333Z" fill="#555555"/>
</g>
</svg>
