<svg preserveAspectRatio="xMidYMid meet" viewBox="0 0 16 16" fill="none" xmlns="http://www.w3.org/2000/svg">
<g id="&#228;&#184;&#128;&#233;&#148;&#174;&#230;&#136;&#144;&#231;&#137;&#135;-icon">
<path id="Subtract" d="M13 8.7002C13.1226 8.7002 13.2426 8.73552 13.3447 8.80273C13.4468 8.86999 13.5266 8.96611 13.5742 9.07812C13.9665 9.99635 14.6998 10.73 15.6221 11.127C15.7343 11.1757 15.8304 11.2558 15.8975 11.3574C15.9645 11.4592 16 11.5786 16 11.7002C16 11.8216 15.9644 11.9404 15.8975 12.042C15.8304 12.1437 15.7343 12.2237 15.6221 12.2725C14.6997 12.6693 13.9664 13.403 13.5742 14.3213C13.5267 14.4334 13.4469 14.5294 13.3447 14.5967C13.2426 14.664 13.1227 14.7002 13 14.7002C12.8773 14.7002 12.7574 14.664 12.6553 14.5967C12.5531 14.5294 12.4733 14.4334 12.4258 14.3213C12.0336 13.403 11.3003 12.6693 10.3779 12.2725C10.2657 12.2237 10.1696 12.1437 10.1025 12.042C10.0356 11.9404 10 11.8216 10 11.7002C10 11.5786 10.0355 11.4592 10.1025 11.3574C10.1696 11.2558 10.2657 11.1757 10.3779 11.127C11.3002 10.73 12.0335 9.99635 12.4258 9.07812C12.4734 8.9661 12.5532 8.86999 12.6553 8.80273C12.7574 8.73552 12.8774 8.7002 13 8.7002Z" fill="#555555"/>
<path id="Vector" d="M8.356 1.084C10.1287 1.17525 11.7987 1.94368 13.0213 3.23067C14.2438 4.51766 14.9255 6.22492 14.9256 8L14.9248 8.016C14.5091 7.74905 14.0482 7.56009 13.5648 7.4584C13.4551 6.3312 13.0057 5.26389 12.2761 4.3977C11.5465 3.5315 10.5711 2.90724 9.47894 2.60754C8.38679 2.30784 7.22938 2.34681 6.15987 2.7193C5.09036 3.09179 4.15916 3.78025 3.48948 4.69356C2.81981 5.60687 2.44323 6.702 2.40958 7.83402C2.37592 8.96604 2.68679 10.0816 3.30103 11.0331C3.91527 11.9846 4.80393 12.7271 5.84943 13.1625C6.89493 13.5978 8.04798 13.7055 9.156 13.4712C9.39923 13.9007 9.71761 14.283 10.096 14.6C9.41816 14.8154 8.71123 14.9252 8 14.9256L7.6432 14.916C5.93208 14.8276 4.31447 14.1081 3.10299 12.8965C1.89151 11.6848 1.17217 10.0671 1.084 8.356L1.0744 8C1.0744 7.09055 1.25354 6.19002 1.6016 5.34981C1.94965 4.5096 2.4598 3.74618 3.10291 3.10314C3.74602 2.46011 4.5095 1.95005 5.34975 1.60209C6.19 1.25413 7.09055 1.07509 8 1.0752L8.356 1.084ZM12.6392 9.7176C12.6763 9.62949 12.7385 9.55429 12.8181 9.50141C12.8978 9.44852 12.9912 9.42031 13.0868 9.42031C13.1824 9.42031 13.2758 9.44852 13.3555 9.50141C13.4351 9.55429 13.4973 9.62949 13.5344 9.7176C13.8401 10.4391 14.4115 11.0154 15.1304 11.3272C15.2179 11.3655 15.2923 11.4284 15.3446 11.5084C15.3968 11.5883 15.4247 11.6817 15.4247 11.7772C15.4247 11.8727 15.3968 11.9661 15.3446 12.046C15.2923 12.126 15.2179 12.1889 15.1304 12.2272C14.4115 12.539 13.84 13.1153 13.5344 13.8368C13.4973 13.9249 13.4351 14.0001 13.3555 14.053C13.2758 14.1059 13.1824 14.1341 13.0868 14.1341C12.9912 14.1341 12.8978 14.1059 12.8181 14.053C12.7385 14.0001 12.6763 13.9249 12.6392 13.8368C12.3336 13.1153 11.7621 12.539 11.0432 12.2272C10.9557 12.1889 10.8813 12.126 10.829 12.046C10.7768 11.9661 10.7489 11.8727 10.7489 11.7772C10.7489 11.6817 10.7768 11.5883 10.829 11.5084C10.8813 11.4284 10.9557 11.3655 11.0432 11.3272C11.7621 11.0154 12.3335 10.4391 12.6392 9.7176ZM7.0896 5.6776C7.3856 5.6456 7.7464 5.8544 8.4696 6.2712L9.2624 6.7296C9.984 7.1464 10.3448 7.3552 10.4664 7.6272C10.572 7.8648 10.572 8.1352 10.4664 8.3728C10.3456 8.6448 9.9848 8.8528 9.2624 9.2704L8.4696 9.7288C7.7464 10.1448 7.3856 10.3528 7.0896 10.3224C6.96174 10.3091 6.83812 10.269 6.72676 10.2047C6.61539 10.1405 6.51878 10.0536 6.4432 9.9496C6.2688 9.7096 6.2688 9.292 6.2688 8.4584V7.5416C6.2688 6.7088 6.2688 6.2912 6.4432 6.0504C6.5968 5.84 6.8312 5.7048 7.0896 5.6768V5.6776Z" fill="#555555"/>
<path id="Vector_2" d="M8.46045 6.2659C7.74335 5.85262 7.38435 5.64571 7.0896 5.67758C6.8312 5.70558 6.5968 5.83998 6.4432 6.05038C6.2688 6.29118 6.2688 6.70878 6.2688 7.54158V8.45838C6.2688 9.29198 6.2688 9.70958 6.4432 9.94958C6.51878 10.0536 6.61539 10.1405 6.72675 10.2047C6.83812 10.2689 6.96174 10.309 7.0896 10.3224C7.38492 10.3527 7.74475 10.1457 8.46464 9.73163L8.4696 9.72878L9.2624 9.27038L9.26846 9.26687C9.98682 8.85161 10.3459 8.64401 10.4664 8.37278C10.572 8.13518 10.572 7.86478 10.4664 7.62718C10.3448 7.35518 9.984 7.14638 9.2624 6.72958L8.4696 6.27118L8.46045 6.2659Z" fill="#555555"/>
</g>
</svg>
