<svg preserveAspectRatio="none" width="100%" height="100%" overflow="visible" style="display: block;" viewBox="0 0 16 16" fill="none" xmlns="http://www.w3.org/2000/svg">
<g id="Frame">
<path id="Vector" d="M9.16364 4.17035C9.16369 4.08524 9.14559 4.00113 9.11058 3.92378C9.07557 3.84643 9.02448 3.77768 8.96081 3.72224C8.89714 3.6668 8.8224 3.62599 8.74172 3.60259C8.66104 3.5792 8.57632 3.57379 8.49338 3.58673L3.25702 4.4064C3.11979 4.4278 2.99463 4.49828 2.90415 4.60509C2.81367 4.71191 2.76383 4.84802 2.76364 4.98884V11.8106C2.76369 11.9515 2.81346 12.0877 2.90396 12.1947C2.99445 12.3016 3.11969 12.3722 3.25702 12.3936L8.49338 13.2133C8.57632 13.2262 8.66104 13.2208 8.74172 13.1974C8.8224 13.174 8.89714 13.1332 8.96081 13.0778C9.02448 13.0223 9.07557 12.9536 9.11058 12.8762C9.14559 12.7989 9.16369 12.7148 9.16364 12.6296V4.17035ZM8.31593 2.42066C8.56469 2.38177 8.8188 2.39791 9.06083 2.46797C9.30287 2.53803 9.5271 2.66036 9.71816 2.82656C9.90921 2.99275 10.0626 3.1989 10.1677 3.43085C10.2728 3.6628 10.3273 3.91506 10.3273 4.17035V12.6296C10.3273 12.8849 10.2728 13.1372 10.1677 13.3692C10.0626 13.6011 9.90921 13.8072 9.71816 13.9734C9.5271 14.1396 9.30287 14.262 9.06083 14.332C8.8188 14.4021 8.56469 14.4182 8.31593 14.3793L3.07956 13.5603C2.66758 13.4959 2.29193 13.284 2.02055 12.9631C1.74918 12.6422 1.6 12.2334 1.6 11.8106V4.98884C1.6 4.56605 1.74918 4.15722 2.02055 3.8363C2.29193 3.51538 2.66758 3.30356 3.07956 3.23915L8.31593 2.42007V2.42066ZM10.9091 3.97384C10.9091 3.89635 10.9241 3.81961 10.9534 3.74802C10.9826 3.67642 11.0255 3.61137 11.0795 3.55657C11.1335 3.50177 11.1977 3.4583 11.2683 3.42865C11.3388 3.39899 11.4145 3.38373 11.4909 3.38373H12.6545C13.1175 3.38373 13.5614 3.57025 13.8888 3.90225C14.2161 4.23425 14.4 4.68455 14.4 5.15407V11.6453C14.4 12.1149 14.2161 12.5652 13.8888 12.8972C13.5614 13.2292 13.1175 13.4157 12.6545 13.4157H11.4909C11.3366 13.4157 11.1886 13.3535 11.0795 13.2428C10.9704 13.1322 10.9091 12.9821 10.9091 12.8256C10.9091 12.6691 10.9704 12.519 11.0795 12.4083C11.1886 12.2976 11.3366 12.2355 11.4909 12.2355H12.6545C12.8089 12.2355 12.9568 12.1733 13.066 12.0626C13.1751 11.9519 13.2364 11.8018 13.2364 11.6453V5.15407C13.2364 4.99757 13.1751 4.84747 13.066 4.7368C12.9568 4.62613 12.8089 4.56396 12.6545 4.56396H11.4909C11.3366 4.56396 11.1886 4.50179 11.0795 4.39112C10.9704 4.28045 10.9091 4.13035 10.9091 3.97384Z" fill="#555555"/>
<path id="Vector_2" d="M7.2896 7.92533C7.34442 7.96235 7.389 8.01261 7.4192 8.07147C7.45048 8.13187 7.46681 8.19891 7.46681 8.26693C7.46681 8.33496 7.45048 8.40199 7.4192 8.4624C7.389 8.52125 7.34442 8.57152 7.2896 8.60853L5.97173 9.52693C5.70133 9.7152 5.33333 9.5184 5.33333 9.18453V7.34933C5.33333 7.01547 5.70133 6.81867 5.97173 7.00693L7.28907 7.92533H7.2896Z" fill="#555555"/>
</g>
</svg>
