<svg preserveAspectRatio="none" overflow="visible" style="display: block;" width="66" height="66" viewBox="0 0 66 66" fill="none" xmlns="http://www.w3.org/2000/svg">
<g id="Group 571">
<circle id="Ellipse 37" cx="33" cy="33" r="33" fill="#03A976"/>
<path id="Vector" d="M48.2813 36.5039H36.5039V48.1719C36.5039 49.4609 35.4609 50.5039 34.1719 50.5039H31.8398C30.5508 50.5039 29.5039 49.4609 29.5039 48.1719V36.5039H17.7266C16.4961 36.5039 15.5 35.5078 15.5 34.2773V31.7266C15.5 30.4961 16.4961 29.5 17.7266 29.5H29.5039V17.832C29.5039 16.543 30.5508 15.5 31.8398 15.5H34.1719C35.4609 15.5 36.5039 16.5469 36.5039 17.832V29.5H48.2813C49.5117 29.5 50.5078 30.4961 50.5078 31.7266V34.2773C50.5078 35.5039 49.5117 36.5039 48.2813 36.5039Z" fill="white"/>
</g>
</svg>
